<mxfile host="app.diagrams.net" modified="2024-07-13T03:42:42.218Z" agent="Mozilla/5.0 (Windows NT 10.0; Win64; x64) AppleWebKit/537.36 (KHTML, like Gecko) Chrome/126.0.0.0 Safari/537.36" version="24.6.5" etag="jLFuO_zU05fyLtlVB0m_" type="github">
  <diagram name="PÃ¡gina-1" id="doDwqiG5zLxRRWnArQYC">
    <mxGraphModel>
      <root>
        <mxCell id="0" />
        <mxCell id="1" parent="0" />
      </root>
    </mxGraphModel>
  </diagram>
</mxfile>
